<?xml version="1.0" encoding="UTF-8" standalone="no"?>
<svg
   xmlns:dc="http://purl.org/dc/elements/1.1/"
   xmlns:cc="http://creativecommons.org/ns#"
   xmlns:rdf="http://www.w3.org/1999/02/22-rdf-syntax-ns#"
   xmlns:svg="http://www.w3.org/2000/svg"
   xmlns="http://www.w3.org/2000/svg"
   id="svg907"
   version="1.1"
   viewBox="0 0 11.562291 11.562291"
   height="11.562291mm"
   width="11.562291mm">
  <defs
     id="defs901" />
  <metadata
     id="metadata904">
    <rdf:RDF>
      <cc:Work
         rdf:about="">
        <dc:format>image/svg+xml</dc:format>
        <dc:type
           rdf:resource="http://purl.org/dc/dcmitype/StillImage" />
        <dc:title></dc:title>
      </cc:Work>
    </rdf:RDF>
  </metadata>
  <g
     transform="translate(-100.05219,-143.05218)"
     id="layer1">
    <g
       id="g10"
       transform="matrix(0.26458333,0,0,0.26458333,86.465834,114.38458)">
      <path
         id="path4"
         d="m 73.2,151.8 c -11.9,0 -21.6,-9.7 -21.6,-21.6 0,-11.9 9.7,-21.6 21.6,-21.6 11.9,0 21.6,9.7 21.6,21.6 -0.1,11.9 -9.7,21.6 -21.6,21.6 z"
         stroke-miterlimit="10"
         style="fill:none;stroke:#ffffff;stroke-width:0.5;stroke-miterlimit:10" />
      <circle
         id="circle6"
         r="18.5"
         cy="130.2"
         cx="73.199997"
         style="fill:#ffffff" />
      <path
         id="path8"
         d="M 70.2,142.4 H 75 v -11.9 h 3.3 l 0.4,-4 H 75 c 0,0 0,-1.5 0,-2.3 0,-0.9 0.2,-1.3 1.1,-1.3 0.7,0 2.6,0 2.6,0 v -4.1 c 0,0 -2.7,0 -3.3,0 -3.5,0 -5.1,1.6 -5.1,4.5 0,2.6 0,3.2 0,3.2 h -2.5 v 4 h 2.5 v 11.9 z"
         style="fill:#1bbdca" />
    </g>
  </g>
</svg>
