<?xml version="1.0" encoding="UTF-8" standalone="no"?>
<svg
   xmlns:dc="http://purl.org/dc/elements/1.1/"
   xmlns:cc="http://creativecommons.org/ns#"
   xmlns:rdf="http://www.w3.org/1999/02/22-rdf-syntax-ns#"
   xmlns:svg="http://www.w3.org/2000/svg"
   xmlns="http://www.w3.org/2000/svg"
   id="svg1508"
   version="1.1"
   viewBox="0 0 11.562291 11.562291"
   height="11.562291mm"
   width="11.562291mm">
  <defs
     id="defs1502" />
  <metadata
     id="metadata1505">
    <rdf:RDF>
      <cc:Work
         rdf:about="">
        <dc:format>image/svg+xml</dc:format>
        <dc:type
           rdf:resource="http://purl.org/dc/dcmitype/StillImage" />
        <dc:title></dc:title>
      </cc:Work>
    </rdf:RDF>
  </metadata>
  <g
     transform="translate(76.084721,-143.05218)"
     id="layer1">
    <g
       id="g26"
       transform="matrix(0.26458333,0,0,0.26458333,-106.4192,114.38458)">
      <g
         id="g16">
        <path
           id="path12"
           d="m 136.5,151.8 c -11.9,0 -21.6,-9.7 -21.6,-21.6 0,-11.9 9.7,-21.6 21.6,-21.6 11.9,0 21.6,9.7 21.6,21.6 0,11.9 -9.7,21.6 -21.6,21.6 z"
           stroke-miterlimit="10"
           style="fill:none;stroke:#ffffff;stroke-width:0.5;stroke-miterlimit:10" />
        <circle
           id="circle14"
           r="18.5"
           cy="130.2"
           cx="136.5"
           style="fill:#ffffff" />
      </g>
      <g
         id="g24">
        <path
           id="path18"
           d="m 136.6,121.8 c 2.9,0 3.2,0 4.3,0.1 1,0 1.6,0.2 2,0.4 0.5,0.2 0.9,0.4 1.2,0.8 0.4,0.4 0.6,0.7 0.8,1.2 0.1,0.4 0.3,0.9 0.4,2 0.1,1.1 0.1,1.5 0.1,4.3 0,2.9 0,3.2 -0.1,4.3 0,1 -0.2,1.6 -0.4,2 -0.2,0.5 -0.4,0.9 -0.8,1.2 -0.4,0.4 -0.7,0.6 -1.2,0.8 -0.4,0.1 -0.9,0.3 -2,0.4 -1.1,0.1 -1.5,0.1 -4.3,0.1 -2.8,0 -3.2,0 -4.3,-0.1 -1,0 -1.6,-0.2 -2,-0.4 -0.5,-0.2 -0.9,-0.4 -1.2,-0.8 -0.4,-0.4 -0.6,-0.7 -0.8,-1.2 -0.1,-0.4 -0.3,-0.9 -0.4,-2 -0.1,-1.1 -0.1,-1.5 -0.1,-4.3 0,-2.9 0,-3.2 0.1,-4.3 0,-1 0.2,-1.6 0.4,-2 0.2,-0.5 0.4,-0.9 0.8,-1.2 0.4,-0.4 0.7,-0.6 1.2,-0.8 0.4,-0.1 0.9,-0.3 2,-0.4 1.1,-0.1 1.4,-0.1 4.3,-0.1 m 0,-1.9 c -2.9,0 -3.3,0 -4.4,0.1 -1.1,0.1 -1.9,0.2 -2.6,0.5 -0.7,0.3 -1.3,0.6 -1.9,1.2 -0.6,0.6 -1,1.2 -1.2,1.9 -0.3,0.7 -0.4,1.5 -0.5,2.6 -0.1,1.1 -0.1,1.5 -0.1,4.4 0,2.9 0,3.3 0.1,4.4 0.1,1.1 0.2,1.9 0.5,2.6 0.3,0.7 0.6,1.3 1.2,1.9 0.6,0.6 1.2,1 1.9,1.2 0.7,0.3 1.5,0.4 2.6,0.5 1.1,0.1 1.5,0.1 4.4,0.1 2.9,0 3.3,0 4.4,-0.1 1.1,-0.1 1.9,-0.2 2.6,-0.5 0.7,-0.3 1.3,-0.6 1.9,-1.2 0.6,-0.6 1,-1.2 1.2,-1.9 0.3,-0.7 0.4,-1.5 0.5,-2.6 0.1,-1.1 0.1,-1.5 0.1,-4.4 0,-2.9 0,-3.3 -0.1,-4.4 -0.1,-1.1 -0.2,-1.9 -0.5,-2.6 -0.3,-0.7 -0.6,-1.3 -1.2,-1.9 -0.6,-0.6 -1.2,-1 -1.9,-1.2 -0.7,-0.3 -1.5,-0.4 -2.6,-0.5 -1.2,-0.1 -1.5,-0.1 -4.4,-0.1"
           style="fill:#1bbdca" />
        <path
           id="path20"
           d="m 136.6,125.1 c -3,0 -5.5,2.5 -5.5,5.5 0,3 2.5,5.5 5.5,5.5 3,0 5.5,-2.5 5.5,-5.5 0,-3 -2.5,-5.5 -5.5,-5.5 m 0,9.1 c -2,0 -3.6,-1.6 -3.6,-3.6 0,-2 1.6,-3.6 3.6,-3.6 2,0 3.6,1.6 3.6,3.6 -0.1,2 -1.7,3.6 -3.6,3.6"
           style="fill:#1bbdca" />
        <path
           id="path22"
           d="m 143.6,124.9 c 0,0.7 -0.6,1.3 -1.3,1.3 -0.7,0 -1.3,-0.6 -1.3,-1.3 0,-0.7 0.6,-1.3 1.3,-1.3 0.7,0 1.3,0.6 1.3,1.3"
           style="fill:#1bbdca" />
      </g>
    </g>
  </g>
</svg>
