<?xml version="1.0" encoding="UTF-8" standalone="no"?>
<svg
   xmlns:dc="http://purl.org/dc/elements/1.1/"
   xmlns:cc="http://creativecommons.org/ns#"
   xmlns:rdf="http://www.w3.org/1999/02/22-rdf-syntax-ns#"
   xmlns:svg="http://www.w3.org/2000/svg"
   xmlns="http://www.w3.org/2000/svg"
   id="svg2113"
   version="1.1"
   viewBox="0 0 11.562291 11.562291"
   height="11.562291mm"
   width="11.562291mm">
  <defs
     id="defs2107" />
  <metadata
     id="metadata2110">
    <rdf:RDF>
      <cc:Work
         rdf:about="">
        <dc:format>image/svg+xml</dc:format>
        <dc:type
           rdf:resource="http://purl.org/dc/dcmitype/StillImage" />
        <dc:title></dc:title>
      </cc:Work>
    </rdf:RDF>
  </metadata>
  <g
     transform="translate(292.28709,-55.361712)"
     id="layer1">
    <g
       id="g72"
       transform="matrix(0.26458333,0,0,0.26458333,-339.97824,26.694108)">
      <path
         id="path66"
         d="m 202.1,151.8 c -11.9,0 -21.6,-9.7 -21.6,-21.6 0,-11.9 9.7,-21.6 21.6,-21.6 11.9,0 21.6,9.7 21.6,21.6 0,11.9 -9.6,21.6 -21.6,21.6 z"
         stroke-miterlimit="10"
         style="fill:none;stroke:#ffffff;stroke-width:0.5;stroke-miterlimit:10" />
      <circle
         id="circle68"
         r="18.5"
         cy="130.2"
         cx="202.10001"
         style="fill:#ffffff" />
      <path
         id="path70"
         d="m 209.1,135.3 c -0.4,-0.4 -2.1,-2.1 -2.4,-2.4 -0.3,-0.3 -0.6,-0.4 -1,-0.1 -0.4,0.3 -1.6,1 -1.9,1.2 -0.4,0.2 -0.6,0.1 -1,-0.2 -0.4,-0.4 -1.6,-1.3 -2.7,-3.3 -0.9,-1.6 -1.3,-3.3 -1.4,-3.8 -0.1,-0.5 0.2,-0.7 0.5,-0.8 0.3,-0.1 0.6,-0.4 0.9,-0.5 0.1,-0.1 0.2,-0.1 0.2,-0.2 0.2,-0.1 0.3,-0.2 0.4,-0.4 0.2,-0.2 0.3,-0.5 0.2,-0.8 0,-0.2 -0.2,-2.6 -0.2,-3.6 -0.1,-1 -0.5,-1 -0.7,-1 -0.2,-0.1 -0.5,-0.2 -0.8,-0.3 -0.3,-0.1 -0.8,-0.2 -1.3,0.1 -0.5,0.3 -2,0.9 -2.7,3 -0.2,0.5 -0.3,1 -0.3,1.5 -0.1,1.6 0.4,3.2 0.5,3.5 0.1,0.4 1.3,5.7 5.1,9 3.8,3.2 4,2.6 4.8,2.8 0.8,0.2 2.9,-0.1 3.6,-1 0.7,-0.9 1,-1.7 1,-1.9 -0.2,-0.2 -0.4,-0.4 -0.8,-0.8 z"
         style="clip-rule:evenodd;fill:#1bbdca;fill-rule:evenodd" />
    </g>
  </g>
</svg>
