<?xml version="1.0" encoding="UTF-8" standalone="no"?>
<svg
   xmlns:dc="http://purl.org/dc/elements/1.1/"
   xmlns:cc="http://creativecommons.org/ns#"
   xmlns:rdf="http://www.w3.org/1999/02/22-rdf-syntax-ns#"
   xmlns:svg="http://www.w3.org/2000/svg"
   xmlns="http://www.w3.org/2000/svg"
   id="svg1157"
   version="1.1"
   viewBox="0 0 15.689792 15.689792"
   height="15.689792mm"
   width="15.689792mm">
  <defs
     id="defs1151" />
  <metadata
     id="metadata1154">
    <rdf:RDF>
      <cc:Work
         rdf:about="">
        <dc:format>image/svg+xml</dc:format>
        <dc:type
           rdf:resource="http://purl.org/dc/dcmitype/StillImage" />
        <dc:title></dc:title>
      </cc:Work>
    </rdf:RDF>
  </metadata>
  <g
     transform="translate(382.79727,3.3984673)"
     id="layer1">
    <rect
       id="rect348-3"
       height="15.689792"
       width="15.689792"
       y="-3.3984673"
       x="-382.79727"
       style="fill:#ffffff;stroke-width:0.26458332" />
    <path
       id="path350-6"
       d="m -378.90791,8.9840377 c -0.58208,0 -1.08479,-0.211667 -1.48167,-0.608542 -0.39687,-0.396875 -0.60854,-0.899583 -0.60854,-1.481666 V 0.09403773 h 1.29646 V 6.8938297 c 0,0.211666 0.0794,0.396875 0.21167,0.529166 0.15875,0.15875 0.3175,0.211667 0.52916,0.211667 0.21167,0 0.39688,-0.07938 0.52917,-0.211667 0.15875,-0.15875 0.21167,-0.3175 0.21167,-0.529166 V 0.09403773 h 1.37583 V 6.8938297 c 0,0.582083 -0.21167,1.084791 -0.60854,1.481666 -0.37042,0.396875 -0.87313,0.608542 -1.45521,0.608542 z"
       style="fill:#1bbdca;stroke-width:0.26458332" />
    <path
       id="path352-7"
       d="m -370.89103,0.09403773 c 0.635,0 1.16416,0.2116667 1.53458,0.6085417 0.34396,0.39687497 0.52917,0.87312497 0.52917,1.48166667 v 1.27 c 0,0.5820833 -0.21167,1.0847916 -0.60855,1.4816666 -0.39687,0.4233334 -0.89958,0.6085417 -1.48166,0.6085417 h -0.76729 v 3.3072913 h -1.32292 V 0.04112113 h 2.11667 z m 0.79375,2.11666667 c 0,-0.238125 -0.0794,-0.4233333 -0.21167,-0.555625 -0.13229,-0.1322917 -0.3175,-0.2116667 -0.55563,-0.2116667 h -0.79375 v 2.8045834 h 0.79375 c 0.21167,0 0.39688,-0.079375 0.52917,-0.2116667 0.15875,-0.15875 0.21167,-0.3175 0.21167,-0.5291667 V 2.2107044 Z"
       style="fill:#1bbdca;stroke-width:0.26458332" />
    <polygon
       id="polygon354-5"
       points="-161.6,-2257.5 -161.6,-2246.7 -156.2,-2233.5 -150.3,-2233.5 -158.4,-2253.2 -151.5,-2266.7 -156.8,-2266.7 "
       style="fill:#1bbdca"
       transform="matrix(0.26458333,0,0,0.26458333,-333.71708,599.82507)" />
    <rect
       id="rect356-3"
       height="0.84666669"
       width="12.091458"
       y="9.7248278"
       x="-380.97165"
       style="fill:#231f20;stroke-width:0.26458332" />
    <rect
       id="rect358-5"
       height="0.84666669"
       width="12.091458"
       y="-1.652256"
       x="-380.97165"
       style="fill:#231f20;stroke-width:0.26458332" />
  </g>
</svg>
